<?xml version="1.0" encoding="utf-8"?>
<!-- Generator: Adobe Illustrator 25.2.3, SVG Export Plug-In . SVG Version: 6.00 Build 0)  -->
<svg version="1.1" id="Capa_1" xmlns="http://www.w3.org/2000/svg" xmlns:xlink="http://www.w3.org/1999/xlink" x="0px" y="0px" 
	viewBox="0 0 566.93 566.93"
	style="enable-background:new 0 0 566.93 566.93;" 	xml:space="preserve">

	<style type="text/css">
		.st0{fill:none;stroke:#fff;stroke-miterlimit:10;}
	</style>
	<g>
		<path d="M163.6,404.56c-0.18,0.14-0.36,0.28-0.54,0.42c0.18-0.01,0.36-0.02,0.54-0.03V404.56z"/>
		<path d="M260.22,362.04v42.51v59.93c0,26.68-21.63,48.31-48.31,48.31c-26.6,0-48.18-21.5-48.31-48.08c0-0.08-0.01-0.16-0.01-0.24
			v-59.53c-0.18,0.01-0.36,0.02-0.54,0.03c-12.64,10.39-21.9,24.73-25.91,41.12c-1.44,5.89-2.23,12.04-2.23,18.38
			c0,24.22,11.19,45.81,28.68,59.93c13.21,10.66,30.01,17.06,48.31,17.06s35.1-6.4,48.31-17.06c17.48-14.11,28.68-35.71,28.68-59.93
			V330.24C282.12,343.07,272.22,354.01,260.22,362.04z"/>
		<path d="M432,212.67h-56.9H288.9V25.46h-28.68v187.22h-7.74h-40.58c-18.3,0-35.1,6.4-48.31,17.06
			c-17.48,14.11-28.68,35.71-28.68,59.93s11.19,45.81,28.68,59.93c13.21,10.66,30.01,17.06,48.31,17.06s35.1-6.4,48.31-17.06
			c17.48-14.11,28.68-35.71,28.68-59.93v-40.58v-7.74h114.66c15.72,0,28.46-12.74,28.46-28.46
			C432.01,212.82,432.01,212.75,432,212.67z M260.22,289.66c0,26.68-21.63,48.31-48.31,48.31c-26.68,0-48.31-21.63-48.31-48.31
			s21.63-48.31,48.31-48.31h48.31V289.66z"/>
	</g>
	<path d="M150.69,204.38c0,0.08,0.01,0.15,0.01,0.23L150.69,204.38L150.69,204.38z"/>
	
</svg>
